<svg width="1075" height="590" viewBox="0 0 1075 590" fill="none" xmlns="http://www.w3.org/2000/svg">
<g opacity="0.25">
<path d="M522.176 276.958L537.397 250.742L552.195 276.958L522.176 276.958Z" fill="#2196F3"/>
<path d="M537.397 337.001L522.598 311.208L552.195 311.208L537.397 337.001Z" fill="#2196F3"/>
<path d="M566.994 354.337L581.792 328.544L596.591 354.337L566.994 354.337Z" fill="#2196F3"/>
<path d="M626.611 337.847L610.967 310.785L642.255 310.785L626.611 337.847Z" fill="#2196F3"/>
<path d="M610.544 277.381L626.611 249.474L642.678 277.381L610.544 277.381Z" fill="#2196F3"/>
<path d="M581.792 260.468L566.148 232.983L597.859 232.983L581.792 260.468Z" fill="#2196F3"/>
<path d="M492.578 260.467L476.934 233.406L508.223 233.406L492.578 260.467Z" fill="#2196F3"/>
<path d="M476.935 354.337L492.579 327.698L507.8 354.337L476.935 354.337Z" fill="#2196F3"/>
<path d="M581.792 414.38L566.994 388.587L596.591 388.587L581.792 414.38Z" fill="#2196F3"/>
<path d="M655.362 354.76L671.429 326.853L687.496 354.76L655.362 354.76Z" fill="#2196F3"/>
<path d="M671.429 261.313L654.939 232.983L687.919 232.983L671.429 261.313Z" fill="#2196F3"/>
<path d="M565.725 200.002L581.792 172.095L598.282 200.002L565.725 200.002Z" fill="#2196F3"/>
<path d="M431.271 277.804L447.76 249.051L464.25 277.804L431.271 277.804Z" fill="#2196F3"/>
<path d="M447.76 338.27L432.116 310.785L463.827 310.785L447.76 338.27Z" fill="#2196F3"/>
<path d="M492.579 414.803L477.357 388.587L507.8 388.587L492.579 414.803Z" fill="#2196F3"/>
<path d="M521.753 431.716L537.397 405.5L552.618 431.716L521.753 431.716Z" fill="#2196F3"/>
<path d="M610.967 432.139L626.611 405.077L642.255 432.139L610.967 432.139Z" fill="#2196F3"/>
<path d="M671.429 415.648L655.362 388.164L687.496 388.164L671.429 415.648Z" fill="#2196F3"/>
<path d="M716.247 340.383L698.489 309.516L734.006 309.516L716.247 340.383Z" fill="#2196F3"/>
<path d="M698.066 278.649L716.247 247.359L734.428 278.649L698.066 278.649Z" fill="#2196F3"/>
<path d="M655.362 200.002L671.429 172.095L687.496 200.002L655.362 200.002Z" fill="#2196F3"/>
<path d="M626.611 183.511L610.544 155.604L643.1 155.604L626.611 183.511Z" fill="#2196F3"/>
<path d="M537.397 183.511L521.33 155.604L553.464 155.604L537.397 183.511Z" fill="#2196F3"/>
<path d="M476.511 200.001L492.578 172.517L508.223 200.001L476.511 200.001Z" fill="#2196F3"/>
<path d="M385.606 200.424L402.942 170.826L420.277 200.424L385.606 200.424Z" fill="#2196F3"/>
<path d="M402.942 262.582L385.606 232.138L420.7 232.138L402.942 262.582Z" fill="#2196F3"/>
<path d="M387.72 354.76L402.942 327.698L418.586 354.76L387.72 354.76Z" fill="#2196F3"/>
<path d="M402.942 413.534L388.989 389.01L417.318 389.01L402.942 413.534Z" fill="#2196F3"/>
<path d="M432.539 431.716L447.76 405.5L462.982 431.716L432.539 431.716Z" fill="#2196F3"/>
<path d="M537.397 493.45L521.33 465.543L553.464 465.543L537.397 493.45Z" fill="#2196F3"/>
<path d="M566.148 509.941L581.792 482.034L597.859 509.941L566.148 509.941Z" fill="#2196F3"/>
<path d="M626.611 493.027L610.967 465.543L642.678 465.543L626.611 493.027Z" fill="#2196F3"/>
<path d="M699.758 432.562L716.247 404.232L732.314 432.562L699.758 432.562Z" fill="#2196F3"/>
<path d="M761.066 416.494L744.153 387.741L777.555 387.741L761.066 416.494Z" fill="#2196F3"/>
<path d="M742.462 356.451L761.066 324.316L779.247 356.451L742.462 356.451Z" fill="#2196F3"/>
<path d="M761.066 265.118L741.193 230.869L780.515 230.869L761.066 265.118Z" fill="#2196F3"/>
<path d="M742.462 201.27L761.066 169.135L779.247 201.27L742.462 201.27Z" fill="#2196F3"/>
<path d="M716.247 184.357L699.335 155.181L733.16 155.181L716.247 184.357Z" fill="#2196F3"/>
<path d="M610.121 122.623L626.611 94.2925L643.1 122.623L610.121 122.623Z" fill="#2196F3"/>
<path d="M581.792 107.4L564.88 77.379L599.128 77.379L581.792 107.4Z" fill="#2196F3"/>
<path d="M520.907 122.623L537.397 94.2925L553.463 122.623L520.907 122.623Z" fill="#2196F3"/>
<path d="M447.76 184.357L430.848 155.181L464.673 155.181L447.76 184.357Z" fill="#2196F3"/>
<path d="M358.546 184.779L341.211 154.758L375.459 154.758L358.546 184.779Z" fill="#2196F3"/>
<path d="M342.057 277.804L358.546 249.051L375.036 277.804L342.057 277.804Z" fill="#2196F3"/>
<path d="M358.546 337.001L343.325 311.208L373.345 311.208L358.546 337.001Z" fill="#2196F3"/>
<path d="M345.862 430.025L358.546 408.883L370.808 430.025L345.862 430.025Z" fill="#2196F3"/>
<path d="M447.76 492.182L432.539 465.966L462.982 465.966L447.76 492.182Z" fill="#2196F3"/>
<path d="M476.089 509.941L492.579 481.188L509.068 509.941L476.089 509.941Z" fill="#2196F3"/>
<path d="M581.792 571.675L564.88 542.499L599.128 542.499L581.792 571.675Z" fill="#2196F3"/>
<path d="M655.362 509.941L671.429 482.034L687.496 509.941L655.362 509.941Z" fill="#2196F3"/>
<path d="M716.248 493.027L700.181 465.543L731.892 465.543L716.248 493.027Z" fill="#2196F3"/>
<path d="M790.663 431.716L805.461 405.5L820.682 431.716L790.663 431.716Z" fill="#2196F3"/>
<path d="M805.461 342.075L786.435 308.671L824.911 308.671L805.461 342.075Z" fill="#2196F3"/>
<path d="M785.589 279.495L805.461 244.823L825.756 279.495L785.589 279.495Z" fill="#2196F3"/>
<path d="M805.461 185.625L787.28 154.335L823.642 154.335L805.461 185.625Z" fill="#2196F3"/>
<path d="M699.758 122.623L716.247 94.2925L732.314 122.623L699.758 122.623Z" fill="#2196F3"/>
<path d="M671.429 106.132L655.362 78.2248L687.496 78.2248L671.429 106.132Z" fill="#2196F3"/>
<path d="M563.611 46.5126L581.792 14.377L600.396 46.5126L563.611 46.5126Z" fill="#2196F3"/>
<path d="M492.578 106.132L476.511 78.2248L508.645 78.2248L492.578 106.132Z" fill="#2196F3"/>
<path d="M431.27 122.623L447.76 94.2925L464.25 122.623L431.27 122.623Z" fill="#2196F3"/>
<path d="M297.661 200.002L313.728 172.095L329.795 200.002L297.661 200.002Z" fill="#2196F3"/>
<path d="M313.728 260.468L297.661 232.983L329.372 232.983L313.728 260.468Z" fill="#2196F3"/>
<path d="M301.044 353.069L313.728 330.658L326.412 353.069L301.044 353.069Z" fill="#2196F3"/>
<path d="M313.728 409.729L302.735 391.124L324.298 391.124L313.728 409.729Z" fill="#2196F3"/>
<path d="M358.546 488.799L346.285 467.657L370.385 467.657L358.546 488.799Z" fill="#2196F3"/>
<path d="M388.989 508.672L402.942 484.147L417.318 508.672L388.989 508.672Z" fill="#2196F3"/>
<path d="M492.578 573.366L474.397 541.654L510.76 541.654L492.578 573.366Z" fill="#2196F3"/>
<path d="M517.947 589.011L537.397 556.03L556.423 589.011L517.947 589.011Z" fill="#2196F3"/>
<path d="M609.275 588.166L626.611 558.144L643.946 588.166L609.275 588.166Z" fill="#2196F3"/>
<path d="M671.429 570.829L655.362 542.922L687.496 542.922L671.429 570.829Z" fill="#2196F3"/>
<path d="M746.69 508.672L761.066 484.148L775.018 508.672L746.69 508.672Z" fill="#2196F3"/>
<path d="M805.461 490.067L792.354 467.234L818.991 467.234L805.461 490.067Z" fill="#2196F3"/>
<path d="M850.279 413.111L836.749 389.432L863.809 389.432L850.279 413.111Z" fill="#2196F3"/>
<path d="M833.79 355.183L850.28 326.853L866.769 355.183L833.79 355.183Z" fill="#2196F3"/>
<path d="M850.28 263.85L831.676 231.714L868.883 231.714L850.28 263.85Z" fill="#2196F3"/>
<path d="M832.521 200.847L850.279 170.403L868.037 200.847L832.521 200.847Z" fill="#2196F3"/>
<path d="M789.394 122.623L805.461 94.2925L821.951 122.623L789.394 122.623Z" fill="#2196F3"/>
<path d="M761.066 105.709L744.999 78.2248L776.71 78.2248L761.066 105.709Z" fill="#2196F3"/>
<path d="M654.516 45.6663L671.429 16.0677L688.342 45.6663L654.516 45.6663Z" fill="#2196F3"/>
<path d="M645.215 3.05176e-05L608.43 2.89097e-05L626.611 31.7128L645.215 3.05176e-05Z" fill="#2196F3"/>
<path d="M555.578 3.05176e-05L519.216 2.89281e-05L537.397 31.2899L555.578 3.05176e-05Z" fill="#2196F3"/>
<path d="M475.666 45.2435L492.579 16.4906L509.068 45.2435L475.666 45.2435Z" fill="#2196F3"/>
<path d="M402.942 105.709L387.298 78.2248L419.009 78.2248L402.942 105.709Z" fill="#2196F3"/>
<path d="M342.479 122.2L358.546 94.7154L374.19 122.2L342.479 122.2Z" fill="#2196F3"/>
<path d="M255.803 120.509L268.91 98.0982L282.017 120.509L255.803 120.509Z" fill="#2196F3"/>
<path d="M268.91 181.397L254.534 156.45L283.286 156.45L268.91 181.397Z" fill="#2196F3"/>
<path d="M255.38 275.69L268.91 252.434L282.44 275.69L255.38 275.69Z" fill="#2196F3"/>
<path d="M268.91 333.195L257.494 312.899L280.326 312.899L268.91 333.195Z" fill="#2196F3"/>
<path d="M261.299 427.488L268.91 414.38L276.521 427.488L261.299 427.488Z" fill="#2196F3"/>
<path d="M268.91 482.456L262.145 471.04L275.675 471.04L268.91 482.456Z" fill="#2196F3"/>
<path d="M304.003 506.136L313.728 489.222L323.453 506.136L304.003 506.136Z" fill="#2196F3"/>
<path d="M402.942 570.406L387.298 542.922L419.009 542.922L402.942 570.406Z" fill="#2196F3"/>
<path d="M429.579 588.588L447.76 556.876L466.364 588.588L429.579 588.588Z" fill="#2196F3"/>
<path d="M701.026 586.474L716.247 560.681L731.046 586.474L701.026 586.474Z" fill="#2196F3"/>
<path d="M761.066 567.447L747.536 544.613L774.173 544.613L761.066 567.447Z" fill="#2196F3"/>
<path d="M840.555 506.135L850.279 489.222L860.004 506.135L840.555 506.135Z" fill="#2196F3"/>
<path d="M895.098 482.879L887.91 470.617L901.863 470.617L895.098 482.879Z" fill="#2196F3"/>
<path d="M886.219 427.91L895.098 412.688L903.977 427.91L886.219 427.91Z" fill="#2196F3"/>
<path d="M895.098 335.309L881.568 312.053L908.628 312.053L895.098 335.309Z" fill="#2196F3"/>
<path d="M879.876 276.958L895.098 250.319L910.319 276.958L879.876 276.958Z" fill="#2196F3"/>
<path d="M895.098 182.243L880.3 156.027L909.897 156.027L895.098 182.243Z" fill="#2196F3"/>
<path d="M881.99 120.931L895.098 97.6753L908.205 120.931L881.99 120.931Z" fill="#2196F3"/>
<path d="M850.279 103.595L836.327 79.0702L864.655 79.0702L850.279 103.595Z" fill="#2196F3"/>
<path d="M745.844 44.3977L761.066 18.6047L775.864 44.3977L745.844 44.3977Z" fill="#2196F3"/>
<path d="M716.247 28.7526L699.758 0.422514L732.314 0.422516L716.247 28.7526Z" fill="#2196F3"/>
<path d="M447.76 28.7526L431.693 0.422514L464.25 0.422516L447.76 28.7526Z" fill="#2196F3"/>
<path d="M387.72 44.3981L402.942 18.1823L418.163 44.3981L387.72 44.3981Z" fill="#2196F3"/>
<path d="M313.728 103.172L299.775 79.4931L327.258 79.4931L313.728 103.172Z" fill="#2196F3"/>
<path d="M224.091 98.0983L214.789 82.0305L233.816 82.0305L224.091 98.0983Z" fill="#2196F3"/>
<path d="M213.098 197.042L224.091 178.014L235.085 197.042L213.098 197.042Z" fill="#2196F3"/>
<path d="M224.091 254.548L213.521 235.943L235.085 235.943L224.091 254.548Z" fill="#2196F3"/>
<path d="M216.481 350.109L224.091 336.578L231.702 350.109L216.481 350.109Z" fill="#2196F3"/>
<path d="M224.091 403.81L218.594 393.661L230.011 393.661L224.091 403.81Z" fill="#2196F3"/>
<path d="M219.44 503.176L224.091 495.141L228.742 503.176L219.44 503.176Z" fill="#2196F3"/>
<path d="M313.728 564.487L303.158 545.882L324.298 545.882L313.728 564.487Z" fill="#2196F3"/>
<path d="M343.325 586.474L358.546 560.681L373.345 586.474L343.325 586.474Z" fill="#2196F3"/>
<path d="M795.313 583.937L805.461 566.178L816.031 583.937L795.313 583.937Z" fill="#2196F3"/>
<path d="M850.279 561.527L842.246 547.573L858.312 547.573L850.279 561.527Z" fill="#2196F3"/>
<path d="M936.533 502.33L939.916 496.833L942.876 502.33L936.533 502.33Z" fill="#2196F3"/>
<path d="M939.916 403.809L933.996 394.083L945.413 394.083L939.916 403.809Z" fill="#2196F3"/>
<path d="M931.883 350.109L939.916 336.578L947.527 350.109L931.883 350.109Z" fill="#2196F3"/>
<path d="M939.916 254.971L928.923 235.943L950.486 235.943L939.916 254.971Z" fill="#2196F3"/>
<path d="M928.923 197.042L939.916 178.014L950.486 197.042L928.923 197.042Z" fill="#2196F3"/>
<path d="M939.916 97.2527L931.037 82.4534L948.372 82.4534L939.916 97.2527Z" fill="#2196F3"/>
<path d="M838.441 42.7064L850.28 21.5646L862.541 42.7064L838.441 42.7064Z" fill="#2196F3"/>
<path d="M805.461 24.9478L792.354 2.11459L818.568 2.11459L805.461 24.9478Z" fill="#2196F3"/>
<path d="M358.546 25.7934L344.593 2.11459L372.076 2.11459L358.546 25.7934Z" fill="#2196F3"/>
<path d="M301.044 42.7064L313.728 21.5646L325.99 42.7064L301.044 42.7064Z" fill="#2196F3"/>
<path d="M172.931 117.126L179.273 105.71L186.038 117.126L172.931 117.126Z" fill="#2196F3"/>
<path d="M179.273 172.94L172.508 160.678L186.461 160.678L179.273 172.94Z" fill="#2196F3"/>
<path d="M172.931 271.884L179.273 260.467L186.038 271.884L172.931 271.884Z" fill="#2196F3"/>
<path d="M179.273 326.008L174.199 316.705L184.77 316.705L179.273 326.008Z" fill="#2196F3"/>
<path d="M175.89 424.951L179.273 419.031L183.078 424.951L175.89 424.951Z" fill="#2196F3"/>
<path d="M179.273 478.228L176.313 472.731L182.656 472.731L179.273 478.228Z" fill="#2196F3"/>
<path d="M224.091 557.722L219.44 549.265L229.165 549.265L224.091 557.722Z" fill="#2196F3"/>
<path d="M261.299 582.246L268.91 569.138L276.521 582.246L261.299 582.246Z" fill="#2196F3"/>
<path d="M890.446 580.555L895.098 572.943L899.326 580.555L890.446 580.555Z" fill="#2196F3"/>
<path d="M939.916 555.185L937.379 550.533L942.03 550.533L939.916 555.185Z" fill="#2196F3"/>
<path d="M984.312 476.114L983.043 474L986.003 474L984.312 476.114Z" fill="#2196F3"/>
<path d="M982.62 424.105L984.311 420.722L986.426 424.105L982.62 424.105Z" fill="#2196F3"/>
<path d="M984.311 324.739L980.083 317.127L988.963 317.127L984.311 324.739Z" fill="#2196F3"/>
<path d="M978.814 271.462L984.311 261.736L990.231 271.462L978.814 271.462Z" fill="#2196F3"/>
<path d="M984.311 172.096L978.391 161.101L990.654 161.101L984.311 172.096Z" fill="#2196F3"/>
<path d="M978.814 116.281L984.311 106.555L990.231 116.281L978.814 116.281Z" fill="#2196F3"/>
<path d="M933.151 39.7467L939.916 27.9073L946.258 39.7467L933.151 39.7467Z" fill="#2196F3"/>
<path d="M895.098 19.8733L886.641 5.07403L903.554 5.07404L895.098 19.8733Z" fill="#2196F3"/>
<path d="M268.91 21.565L258.762 4.22867L279.057 4.22867L268.91 21.565Z" fill="#2196F3"/>
<path d="M216.058 40.5925L224.091 26.2161L232.548 40.5925L216.058 40.5925Z" fill="#2196F3"/>
<path d="M131.918 37.6331L134.878 32.1358L137.837 37.6331L131.918 37.6331Z" fill="#2196F3"/>
<path d="M134.878 91.333L131.072 85.4128L138.26 85.4128L134.878 91.333Z" fill="#2196F3"/>
<path d="M131.072 192.814L134.878 186.471L138.683 192.814L131.072 192.814Z" fill="#2196F3"/>
<path d="M134.878 246.514L131.072 240.171L138.683 240.171L134.878 246.514Z" fill="#2196F3"/>
<path d="M131.918 347.149L134.878 342.497L137.415 347.149L131.918 347.149Z" fill="#2196F3"/>
<path d="M134.877 400.004L132.34 395.775L136.992 395.775L134.877 400.004Z" fill="#2196F3"/>
<path d="M132.763 501.484L134.878 498.102L136.992 501.484L132.763 501.484Z" fill="#2196F3"/>
<path d="M134.878 554.762L132.341 550.956L136.992 550.956L134.878 554.762Z" fill="#2196F3"/>
<path d="M175.89 580.132L179.273 573.789L183.079 580.132L175.89 580.132Z" fill="#2196F3"/>
<path d="M983.889 578.44L984.312 577.172L985.157 578.44L983.889 578.44Z" fill="#2196F3"/>
<path d="M1029.13 397.889L1028.28 396.621L1029.98 396.621L1029.13 397.889Z" fill="#2196F3"/>
<path d="M1027.86 346.303L1029.13 344.189L1030.4 346.303L1027.86 346.303Z" fill="#2196F3"/>
<path d="M1029.13 245.246L1026.59 241.017L1031.67 241.017L1029.13 245.246Z" fill="#2196F3"/>
<path d="M1026.59 192.391L1029.13 187.317L1032.09 192.391L1026.59 192.391Z" fill="#2196F3"/>
<path d="M1029.13 90.0644L1027.02 86.2587L1031.24 86.2587L1029.13 90.0644Z" fill="#2196F3"/>
<path d="M1027.44 36.7871L1029.13 33.827L1030.82 36.7871L1027.44 36.7871Z" fill="#2196F3"/>
<path d="M984.312 13.5312L981.352 8.0339L987.694 8.03391L984.312 13.5312Z" fill="#2196F3"/>
<path d="M179.273 15.6458L174.621 7.18854L184.347 7.18854L179.273 15.6458Z" fill="#2196F3"/>
<path d="M90.059 11.4165L88.7905 9.30215L91.3275 9.30215L90.059 11.4165Z" fill="#2196F3"/>
<path d="M87.945 114.166L90.0592 110.784L92.1735 114.166L87.945 114.166Z" fill="#2196F3"/>
<path d="M90.0592 167.021L87.945 163.638L92.1735 163.638L90.0592 167.021Z" fill="#2196F3"/>
<path d="M87.9452 269.347L90.0594 265.964L92.1736 269.347L87.9452 269.347Z" fill="#2196F3"/>
<path d="M90.0591 321.778L88.3677 318.818L91.7505 318.818L90.0591 321.778Z" fill="#2196F3"/>
<path d="M88.3677 424.105L90.0591 421.145L91.7505 424.105L88.3677 424.105Z" fill="#2196F3"/>
<path d="M90.0592 476.114L88.7906 473.999L91.3276 473.999L90.0592 476.114Z" fill="#2196F3"/>
<path d="M88.3677 578.863L90.0592 576.326L91.3276 578.863L88.3677 578.863Z" fill="#2196F3"/>
<path d="M1073.95 165.752L1073.1 164.484L1074.79 164.484L1073.95 165.752Z" fill="#2196F3"/>
<path d="M1073.1 113.743L1073.95 112.051L1074.79 113.743L1073.1 113.743Z" fill="#2196F3"/>
<path d="M44.3954 35.9414L45.2411 34.6728L46.0868 35.9414L44.3954 35.9414Z" fill="#2196F3"/>
<path d="M45.241 88.3731L44.3953 86.6816L46.5095 86.6816L45.241 88.3731Z" fill="#2196F3"/>
<path d="M44.3954 191.123L45.2411 189.431L46.0868 191.123L44.3954 191.123Z" fill="#2196F3"/>
<path d="M45.2411 243.554L44.3954 241.863L46.0868 241.863L45.2411 243.554Z" fill="#2196F3"/>
<path d="M44.3954 346.303L45.2411 344.612L46.0868 346.303L44.3954 346.303Z" fill="#2196F3"/>
<path d="M45.241 398.312L44.3953 396.621L46.5095 396.621L45.241 398.312Z" fill="#2196F3"/>
<path d="M44.3953 501.061L45.241 499.37L46.5095 501.061L44.3953 501.061Z" fill="#2196F3"/>
<path d="M45.2412 553.07L44.3956 551.802L46.0869 551.802L45.2412 553.07Z" fill="#2196F3"/>
<path d="M1.20854e-05 423.683L0.422817 421.991L1.26855 423.683L1.20854e-05 423.683Z" fill="#2196F3"/>
<path d="M0.422817 475.691L1.21593e-05 474.423L1.26855 474.423L0.422817 475.691Z" fill="#2196F3"/>
<path d="M1.21039e-05 578.44L0.422817 577.172L1.26855 578.44L1.21039e-05 578.44Z" fill="#2196F3"/>
</g>
</svg>
